<svg width="36" height="23" viewBox="0 0 36 23" fill="none" xmlns="http://www.w3.org/2000/svg">
<path d="M33.3873 0.577148L33.766 0.577828C33.8683 0.578507 33.9709 0.57964 34.074 0.582358C34.2536 0.58734 34.4633 0.59708 34.659 0.632185C34.8289 0.662762 34.9716 0.709192 35.1084 0.778951C35.3821 0.918142 35.6045 1.14079 35.7434 1.41471C35.8128 1.5506 35.859 1.69238 35.8895 1.86384C35.9244 2.05726 35.9342 2.26767 35.9389 2.44818C35.9419 2.5501 35.9432 2.65202 35.9434 2.75621C35.9446 2.88236 35.9446 3.00829 35.9446 3.13467V20.4199C35.9446 20.5463 35.9446 20.6722 35.9437 20.8009C35.9432 20.9028 35.9418 21.0047 35.9391 21.1066C35.9341 21.2869 35.9244 21.4973 35.8891 21.693C35.8634 21.8487 35.8141 21.9995 35.743 22.1403C35.6038 22.4144 35.3811 22.637 35.107 22.7761C34.9711 22.8454 34.8289 22.8918 34.6606 22.9222C34.4611 22.9577 34.2423 22.9675 34.0776 22.972C33.9741 22.9743 33.8711 22.9759 33.7653 22.9763C33.6396 22.9772 33.5132 22.9772 33.3873 22.9772H2.60798C2.48341 22.9772 2.35884 22.9772 2.232 22.9763C2.13007 22.9759 2.02815 22.9745 1.92624 22.9722C1.75774 22.9677 1.53895 22.9577 1.34099 22.9224C1.18448 22.8963 1.03283 22.8467 0.891185 22.7752C0.755318 22.7062 0.631309 22.616 0.523819 22.5079C0.415989 22.4003 0.325933 22.2762 0.257014 22.1403C0.185838 21.9987 0.136509 21.8471 0.110701 21.6908C0.0753687 21.4953 0.0654031 21.2858 0.0608733 21.1069C0.0583146 21.0046 0.0568046 20.9023 0.0563435 20.8L0.0556641 20.4994V3.0554L0.056117 2.7553C0.0565846 2.65284 0.0580946 2.55039 0.0606468 2.44796C0.0656296 2.26857 0.0753687 2.05907 0.110928 1.86203C0.136787 1.70594 0.186116 1.55467 0.25724 1.41335C0.326093 1.27791 0.415783 1.15424 0.524498 1.04576C0.632248 0.937836 0.756388 0.847636 0.892318 0.778498C1.03362 0.707511 1.18479 0.658188 1.34077 0.632185C1.53668 0.59708 1.74664 0.58734 1.92647 0.582358C2.02884 0.57964 2.13144 0.578507 2.23314 0.577828L2.61296 0.577148H33.3873Z" fill="white"/>
</svg>
