<svg width="20" height="20" viewBox="0 0 20 20" fill="none" xmlns="http://www.w3.org/2000/svg">
<path fill-rule="evenodd" clip-rule="evenodd" d="M10 0C11.3261 0 12.5979 0.526784 13.5355 1.46447C14.4732 2.40215 15 3.67392 15 5C15 6.32608 14.4732 7.59785 13.5355 8.53553C12.5979 9.47322 11.3261 10 10 10C8.67392 10 7.40215 9.47322 6.46447 8.53553C5.52678 7.59785 5 6.32608 5 5C5 3.67392 5.52678 2.40215 6.46447 1.46447C7.40215 0.526784 8.67392 0 10 0ZM10 1.429C9.05291 1.429 8.14461 1.80523 7.47492 2.47492C6.80523 3.14461 6.429 4.05291 6.429 5C6.429 5.94709 6.80523 6.85539 7.47492 7.52508C8.14461 8.19477 9.05291 8.571 10 8.571C10.9471 8.571 11.8554 8.19477 12.5251 7.52508C13.1948 6.85539 13.571 5.94709 13.571 5C13.571 4.05291 13.1948 3.14461 12.5251 2.47492C11.8554 1.80523 10.9471 1.429 10 1.429Z" fill="white"/>
<path fill-rule="evenodd" clip-rule="evenodd" d="M1 16.25C1 13.764 5.542 12.25 10.028 12.25C14.514 12.25 19 13.764 19 16.25V19.25H1V16.25Z" stroke="white" stroke-width="1.5"/>
<path d="M10 9.25C12.3472 9.25 14.25 7.34721 14.25 5C14.25 2.65279 12.3472 0.75 10 0.75C7.65279 0.75 5.75 2.65279 5.75 5C5.75 7.34721 7.65279 9.25 10 9.25Z" stroke="white" stroke-width="1.5"/>
</svg>
